<?xml version="1.0" encoding="UTF-8"?>
<svg xmlns="http://www.w3.org/2000/svg" xmlns:xlink="http://www.w3.org/1999/xlink" width="64pt" height="64pt" viewBox="0 0 64 64" version="1.1">
<defs>
<linearGradient id="linear0" gradientUnits="userSpaceOnUse" x1="86" y1="43.671879" x2="86" y2="129.838501" gradientTransform="matrix(0.372093,0,0,0.372093,0,0)">
<stop offset="0" style="stop-color:rgb(54.11765%,70.588237%,100%);stop-opacity:1;"/>
<stop offset="1" style="stop-color:rgb(89.411765%,57.254905%,100%);stop-opacity:1;"/>
</linearGradient>
<linearGradient id="linear1" gradientUnits="userSpaceOnUse" x1="86" y1="14.10938" x2="86" y2="159.583755" gradientTransform="matrix(0.372093,0,0,0.372093,0,0)">
<stop offset="0" style="stop-color:rgb(10.196079%,42.745098%,100%);stop-opacity:1;"/>
<stop offset="1" style="stop-color:rgb(78.431374%,13.333334%,100%);stop-opacity:1;"/>
</linearGradient>
</defs>
<g id="surface38900108">
<path style=" stroke:none;fill-rule:nonzero;fill:url(#linear0);" d="M 26.0625 45.003906 C 38.140625 45.003906 44.742188 34.996094 44.742188 26.324219 C 44.742188 26.039062 44.738281 25.757812 44.726562 25.472656 C 46.007812 24.546875 47.121094 23.390625 48 22.074219 C 46.824219 22.597656 45.558594 22.949219 44.230469 23.109375 C 45.585938 22.296875 46.625 21.011719 47.117188 19.476562 C 45.847656 20.230469 44.445312 20.777344 42.949219 21.070312 C 41.75 19.796875 40.042969 18.996094 38.15625 18.996094 C 34.53125 18.996094 31.589844 21.9375 31.589844 25.5625 C 31.589844 26.078125 31.648438 26.578125 31.761719 27.058594 C 26.304688 26.785156 21.464844 24.171875 18.226562 20.199219 C 17.664062 21.171875 17.339844 22.296875 17.339844 23.5 C 17.339844 25.777344 18.496094 27.789062 20.261719 28.964844 C 19.183594 28.933594 18.171875 28.636719 17.285156 28.144531 C 17.285156 28.171875 17.285156 28.199219 17.285156 28.226562 C 17.285156 31.40625 19.550781 34.0625 22.554688 34.664062 C 22.003906 34.8125 21.421875 34.894531 20.820312 34.894531 C 20.398438 34.894531 19.988281 34.851562 19.589844 34.777344 C 20.425781 37.386719 22.847656 39.28125 25.722656 39.335938 C 23.472656 41.097656 20.644531 42.148438 17.566406 42.148438 C 17.035156 42.148438 16.515625 42.117188 16 42.054688 C 18.90625 43.914062 22.355469 45.003906 26.0625 45.003906 "/>
<path style=" stroke:none;fill-rule:nonzero;fill:url(#linear1);" d="M 32 58 C 17.664062 58 6 46.335938 6 32 C 6 17.664062 17.664062 6 32 6 C 46.335938 6 58 17.664062 58 32 C 58 46.335938 46.335938 58 32 58 Z M 32 8 C 18.765625 8 8 18.765625 8 32 C 8 45.234375 18.765625 56 32 56 C 45.234375 56 56 45.234375 56 32 C 56 18.765625 45.234375 8 32 8 Z M 32 8 "/>
</g>
</svg>
